<svg width="512" height="512" viewBox="0 0 512 512" fill="none" xmlns="http://www.w3.org/2000/svg">
<rect width="512" height="512" rx="100" fill="#0f172a"/>
<path d="M256 128C185.307 128 128 185.307 128 256C128 326.693 185.307 384 256 384C326.693 384 384 326.693 384 256C384 185.307 326.693 128 256 128ZM256 344C207.399 344 168 304.601 168 256C168 207.399 207.399 168 256 168C304.601 168 344 207.399 344 256C344 304.601 304.601 344 256 344ZM304 240H272V208C272 199.163 264.837 192 256 192C247.163 192 240 199.163 240 208V240H208C199.163 240 192 247.163 192 256C192 264.837 199.163 272 208 272H240V304C240 312.837 247.163 320 256 320C264.837 320 272 312.837 272 304V272H304C312.837 272 320 264.837 320 256C320 247.163 312.837 240 304 240Z" fill="#10b981"/>
</svg>
